<svg
    xmlns="http://www.w3.org/2000/svg"
    xmlns:xlink="http://www.w3.org/1999/xlink"
    viewBox="0 0 512 512"
    width="512"
    height="512"
    preserveAspectRatio="xMinYMin slice"
    style="width: 100%; height: 100%; transform: translate3d(0px, 0px, 0px); content-visibility: visible;">
    <defs>
        <clipPath id="__lottie_element_600">
            <rect width="512" height="512" x="0" y="0"></rect>
        </clipPath>
        <clipPath id="__lottie_element_620">
            <path d="M0,0 L500,0 L500,500 L0,500z"></path>
        </clipPath>
        <clipPath id="__lottie_element_654">
            <path d="M0,0 L1920,0 L1920,1080 L0,1080z"></path>
        </clipPath>
        <filter id="__lottie_element_659" x="0%" y="0%" width="100%" height="100%">
            <feColorMatrix
                type="matrix"
                color-interpolation-filters="sRGB"
                values="0 0 0 0 1 0 0 0 0 0 0 0 0 0 0 0 0 0 1 0"
                result="filter_result_0"></feColorMatrix>
            <feGaussianBlur
                in="SourceAlpha"
                result="filter_result_1_drop_shadow_1"
                stdDeviation="0"></feGaussianBlur>
            <feOffset
                dx="3.5355339059327378"
                dy="3.5355339059327373"
                in="filter_result_1_drop_shadow_1"
                result="filter_result_1_drop_shadow_2"></feOffset>
            <feFlood
                flood-color="#000000"
                flood-opacity="0.5"
                result="filter_result_1_drop_shadow_3"></feFlood>
            <feComposite
                in="filter_result_1_drop_shadow_3"
                in2="filter_result_1_drop_shadow_2"
                operator="in"
                result="filter_result_1_drop_shadow_4"></feComposite>
            <feMerge result="filter_result_1">
                <feMergeNode in="filter_result_1_drop_shadow_4"></feMergeNode>
                <feMergeNode in="filter_result_0"></feMergeNode>
            </feMerge>
        </filter>
    </defs>
    <g clip-path="url(#__lottie_element_600)">
        <g
            clip-path="url(#__lottie_element_654)"
            style="display: none;"
            transform="matrix(0.20000000298023224,0,0,0.20000000298023224,94.45001220703125,12.902000427246094)"
            opacity="1">
            <g
                filter="url(#__lottie_element_659)"
                style="display: none;"
                transform="matrix(1,0,0,1,940,522)"
                opacity="1">
                <path
                    stroke-linecap="round"
                    stroke-linejoin="round"
                    fill-opacity="0"
                    stroke="rgb(255,255,255)"
                    stroke-opacity="1"
                    stroke-width="1.5411119383928913"
                    d=" M244.87,-208.19 C245.14,-208.46 245.28,-208.6 245.28,-208.6 M346.24,17.63 C346.64,17.63 346.85,17.63 346.85,17.63 M254.3,249.98 C254.59,250.28 254.74,250.43 254.74,250.43 M22.08,350.62 C22.08,351.04 22.08,351.26 22.08,351.26 M-223.54,258.71 C-223.85,259.02 -224.01,259.18 -224.01,259.18 M-335.35,18.01 C-335.8,18.01 -336.04,18.01 -336.04,18.01 M-220.42,-226.21 C-220.72,-226.52 -220.88,-226.67 -220.88,-226.67 M20.48,-322.14 C20.48,-322.56 20.48,-322.78 20.48,-322.78"></path>
                <g
                    opacity="1"
                    transform="matrix(1.8510500192642212,0,0,1.8510500192642212,-19.41002655029297,-13.969152450561523)">
                    <g opacity="1" transform="matrix(1,0,0,1,0,0)"></g>
                    <g opacity="1" transform="matrix(1,0,0,1,0,0)"></g>
                    <g opacity="1" transform="matrix(1,0,0,1,0,0)"></g>
                    <g opacity="1" transform="matrix(1,0,0,1,0,0)"></g>
                    <g opacity="1" transform="matrix(1,0,0,1,0,0)"></g>
                    <g opacity="1" transform="matrix(1,0,0,1,0,0)"></g>
                    <g opacity="1" transform="matrix(1,0,0,1,0,0)"></g>
                    <g opacity="1" transform="matrix(1,0,0,1,0,0)"></g>
                </g>
            </g>
        </g>
        <g
            transform="matrix(0,0,0,0,214.55551147460938,229.38735961914062)"
            opacity="1"
            style="display: block;">
            <g opacity="1" transform="matrix(1,0,0,1,-39.5,-25.875)">
                <path
                    fill="rgb(255,255,255)"
                    fill-opacity="1"
                    d=" M0,-6.625 C3.725325107574463,-6.625 6.75,-3.6563374996185303 6.75,0 C6.75,3.6563374996185303 3.725325107574463,6.625 0,6.625 C-3.725325107574463,6.625 -6.75,3.6563374996185303 -6.75,0 C-6.75,-3.6563374996185303 -3.725325107574463,-6.625 0,-6.625z"></path>
            </g>
        </g>
        <g
            transform="matrix(2.974330425262451,-0.5781512260437012,0.5781512260437012,2.974330425262451,92.30653381347656,185.5604248046875)"
            opacity="1"
            style="display: block;">
            <g opacity="1" transform="matrix(1,0,0,1,56.02899932861328,58.70199966430664)">
                <path
                    fill="rgb(223,102,18)"
                    fill-opacity="1"
                    d=" M-7.109000205993652,0.29499998688697815 C-4.132999897003174,-1.6579999923706055 -0.10000000149011612,-0.164000004529953 1.0679999589920044,0.33899998664855957 C3.313999891281128,1.309000015258789 4.159999847412109,2.7829999923706055 4.751999855041504,2.4230000972747803 C6.019999980926514,1.6510000228881836 10.48799991607666,4.949999809265137 10.36299991607666,5.367000102996826 C10.039999961853027,6.439000129699707 9.170000076293945,7.7779998779296875 8.336000442504883,7.709000110626221 C7.368000030517578,7.626999855041504 7.3470001220703125,5.718999862670898 6.163000106811523,5.368000030517578 C5.119999885559082,5.059000015258789 4.275000095367432,6.276000022888184 2.803999900817871,7.21999979019165 C-0.9959999918937683,9.657999992370605 -5.675000190734863,8.142000198364258 -6.834000110626221,7.7870001792907715 C-8.260000228881836,7.349999904632568 -9.248000144958496,7.031000137329102 -9.710000038146973,6.111999988555908 C-10.574000358581543,4.392000198364258 -9.085000038146973,1.590999960899353 -7.109000205993652,0.29499998688697815z"></path>
            </g>
            <g opacity="1" transform="matrix(1,0,0,1,52.380001068115234,46.73400115966797)">
                <path
                    fill="rgb(223,102,18)"
                    fill-opacity="1"
                    d=" M-10.218999862670898,-35.694000244140625 C-13.255000114440918,-34.64099884033203 -19.590999603271484,-32.987998962402344 -25.363000869750977,-35.766998291015625 C-27.927000045776367,-37.00199890136719 -30.232999801635742,-39.040000915527344 -31.729000091552734,-40.362998962402344 C-34.290000915527344,-42.62799835205078 -36.14500045776367,-44.83000183105469 -37.39500045776367,-46.48400115966797 C-37.37699890136719,-45.73500061035156 -37.34400177001953,-44.608001708984375 -37.284000396728516,-43.23400115966797 C-37.185001373291016,-40.9630012512207 -37.119998931884766,-40.53499984741211 -37.1609992980957,-39.61800003051758 C-37.26599884033203,-37.21099853515625 -37.319000244140625,-36.007999420166016 -38.09000015258789,-35.3120002746582 C-39.36800003051758,-34.15800094604492 -41.90999984741211,-34.8390007019043 -45.85200119018555,-35.89500045776367 C-46.141998291015625,-35.97200012207031 -46.685001373291016,-36.12799835205078 -47.768001556396484,-36.4370002746582 C-49.625,-36.96799850463867 -51.13399887084961,-37.41400146484375 -52.130001068115234,-37.709999084472656 C-51.82899856567383,-37.029998779296875 -51.37099838256836,-36.00600051879883 -50.790000915527344,-34.76900100708008 C-50.137001037597656,-33.380001068115234 -49.67100143432617,-32.44499969482422 -49.55099868774414,-32.20000076293945 C-48.215999603271484,-29.44300079345703 -48.10100173950195,-25.719999313354492 -48.07600021362305,-24.68199920654297 C-47.9010009765625,-17.339000701904297 -48.564998626708984,-2.8940000534057617 -47.5629997253418,3.2019999027252197 C-46.98400115966797,6.7230000495910645 -45.073001861572266,18.34600067138672 -36.319000244140625,28.301000595092773 C-25.97100067138672,40.06700134277344 -12.032999992370605,42.48400115966797 -7.735000133514404,43.16299819946289 C-4.053999900817871,43.74399948120117 15.949000358581543,46.48400115966797 31.773000717163086,32.96500015258789 C33.35900115966797,31.610000610351562 40.766998291015625,25.106000900268555 44.972999572753906,13.78600025177002 C45.12699890136719,13.373000144958496 45.3650016784668,12.729000091552734 45.645999908447266,11.88700008392334 C46.9109992980957,8.098999977111816 52.12900161743164,-7.822999954223633 43.52000045776367,-22.16699981689453 C41.95000076293945,-24.7810001373291 36.7400016784668,-32.643001556396484 26.68899917602539,-36.404998779296875 C21.128999710083008,-38.48699951171875 16.308000564575195,-38.481998443603516 14.114999771118164,-38.374000549316406 C4.103000164031982,-37.88399887084961 -2.75,-32.720001220703125 -5.176000118255615,-30.695999145507812 C-3.888000011444092,-30.841999053955078 8.677000045776367,-32.05699920654297 16.54400062561035,-22.798999786376953 C20.891000747680664,-17.683000564575195 21.517000198364258,-12.060999870300293 21.698999404907227,-10.199999809265137 C22.415000915527344,-2.828000068664551 19.909000396728516,7.933000087738037 10.565999984741211,13.168999671936035 C3.234999895095825,17.277000427246094 -5.401000022888184,15.786999702453613 -11.920000076293945,12.437000274658203 C-24.253000259399414,6.099999904632568 -26.63599967956543,-10.62399959564209 -21.47100067138672,-16.67099952697754 C-21.2810001373291,-16.893999099731445 -20.93400001525879,-17.268999099731445 -20.135000228881836,-18.152000427246094 C-18.851999282836914,-19.569000244140625 -18.341999053955078,-20.878999710083008 -18.18000030517578,-21.06100082397461 C-17.152000427246094,-22.211999893188477 -14.456000328063965,-24.775999069213867 -13.383999824523926,-26.263999938964844 C-12.178999900817871,-27.934999465942383 -10.496000289916992,-30.756000518798828 -10.218999862670898,-35.694000244140625z"></path>
            </g>
            <g opacity="1" transform="matrix(1,0,0,1,35.49800109863281,53.0629997253418)">
                <path
                    fill="rgb(255,255,255)"
                    fill-opacity="1"
                    d=" M-17.3700008392334,13.831000328063965 C-8.109000205993652,29.781999588012695 13.746000289916992,36.691001892089844 21.06399917602539,30.05699920654297 C25.492000579833984,26.04199981689453 21.343000411987305,13.984000205993652 16.5049991607666,13.612000465393066 C10.888999938964844,13.180999755859375 6.579999923706055,11.572999954223633 3.2209999561309814,9.109999656677246 C-2.1470000743865967,5.173999786376953 -4.53000020980835,-0.527999997138977 -5.535999774932861,-3.2920000553131104 C-6.420000076293945,-5.718999862670898 -7.790999889373779,-9.623000144958496 -7.13100004196167,-14.604999542236328 C-6.936999797821045,-16.06599998474121 -6.357999801635742,-20.083999633789062 -3.555999994277954,-23.923999786376953 C-0.4339999854564667,-28.202999114990234 2.061000108718872,-29.499000549316406 4.663000106811523,-34.05099868774414 C5.228000164031982,-35.040000915527344 5.0879998207092285,-36.084999084472656 5.125,-36.691001892089844 C3.184000015258789,-36.15999984741211 -11.640999794006348,-31.05299949645996 -18.41699981689453,-16.405000686645508 C-19.082000732421875,-14.968000411987305 -25.492000579833984,-0.15800000727176666 -17.3700008392334,13.831000328063965z"></path>
            </g>
            <g opacity="1" transform="matrix(1,0,0,1,64.98200225830078,17.21500015258789)">
                <path
                    fill="rgb(255,255,255)"
                    fill-opacity="1"
                    d=" M-17.777000427246094,-1.1770000457763672 C-16.667999267578125,-2.1080000400543213 -15.006999969482422,-3.2850000858306885 -12.928000450134277,-4.552000045776367 C-5.4019999504089355,-9.140999794006348 1.8880000114440918,-8.916999816894531 3.5899999141693115,-8.88599967956543 C7.610000133514404,-8.815999984741211 10.640999794006348,-7.980000019073486 11.875,-7.619999885559082 C13.456000328063965,-7.1579999923706055 15.506999969482422,-6.425000190734863 17.777000427246094,-5.224999904632568 C17.492000579833984,-5.2820000648498535 11.690999984741211,-6.3460001945495605 7.716000080108643,-1.9670000076293945 C5.008999824523926,1.0169999599456787 4.234000205993652,5.331999778747559 5.7170000076293945,9.140999794006348 C4.375,7.250999927520752 0.7910000085830688,2.3329999446868896 -5.951000213623047,0.14800000190734863 C-11.156999588012695,-1.5390000343322754 -15.305999755859375,-1.3730000257492065 -17.777000427246094,-1.1770000457763672z"></path>
            </g>
            <g opacity="1" transform="matrix(1,0,0,1,56.23500061035156,76.06600189208984)">
                <path
                    fill="rgb(223,102,18)"
                    fill-opacity="1"
                    d=" M-8.354000091552734,5.8460001945495605 C-7.150000095367432,2.496000051498413 -3.0290000438690186,1.2630000114440918 -1.7929999828338623,0.9639999866485596 C0.5839999914169312,0.3869999945163727 2.3310000896453857,0.9020000100135803 2.5880000591278076,0.257999986410141 C3.135999917984009,-1.121000051498413 2.6389999389648438,-7.136000156402588 3.7820000648498535,-5.855999946594238 C4.804999828338623,-4.711999893188477 5.114999771118164,-4.6570000648498535 6.7179999351501465,-3.0409998893737793 C8.260000228881836,-1.4859999418258667 8.505000114440918,-1.0180000066757202 8.654999732971191,-0.609000027179718 C9.041999816894531,0.44200000166893005 9.152999877929688,2.0339999198913574 8.444999694824219,2.4800000190734863 C7.622000217437744,2.996999979019165 6.458000183105469,1.4850000143051147 5.302000045776367,1.9170000553131104 C4.2820000648498535,2.296999931335449 4.339000225067139,3.7780001163482666 3.7309999465942383,5.416999816894531 C2.1619999408721924,9.649999618530273 -2.48799991607666,11.251999855041504 -3.627000093460083,11.664999961853027 C-5.03000020980835,12.173999786376953 -6.010000228881836,12.512999534606934 -6.933000087738037,12.057000160217285 C-8.656999588012695,11.20199966430664 -9.152999877929688,8.069999694824219 -8.354000091552734,5.8460001945495605z"></path>
            </g>
        </g>
        <g
            transform="matrix(2.2199900150299072,0,0,2.2199900150299072,262.7037353515625,123.8766860961914)"
            opacity="1"
            style="display: block;">
            <g
                opacity="1"
                transform="matrix(1,0,0,1,11.232999801635742,15.246999740600586)">
                <path
                    fill="rgb(255,223,128)"
                    fill-opacity="1"
                    d=" M-1.0420000553131104,-14.996999740600586 C-1.0420000553131104,-14.996999740600586 10.984000205993652,10.883000373840332 10.984000205993652,10.883000373840332 C10.984000205993652,10.883000373840332 10.74899959564209,14.159000396728516 0.12800000607967377,14.579000473022461 C-10.494999885559082,14.996999740600586 -10.984000205993652,11.75100040435791 -10.984000205993652,11.75100040435791 C-10.984000205993652,11.75100040435791 -1.0420000553131104,-14.996999740600586 -1.0420000553131104,-14.996999740600586z"></path>
            </g>
            <g opacity="1" transform="matrix(1,0,0,1,13.552000045776367,19.80299949645996)">
                <path
                    fill="rgb(237,70,131)"
                    fill-opacity="1"
                    d=" M-8.666000366210938,-5.2820000648498535 C-8.666000366210938,-5.2820000648498535 -8.02299976348877,-7.01200008392334 -8.02299976348877,-7.01200008392334 C-3.115999937057495,1.3880000114440918 4.960999965667725,4.51800012588501 8.274999618530273,5.486000061035156 C8.274999618530273,5.486000061035156 8.666000366210938,6.327000141143799 8.666000366210938,6.327000141143799 C8.666000366210938,6.327000141143799 8.642999649047852,6.60699987411499 8.352999687194824,7.01200008392334 C5.276000022888184,6.177999973297119 -3.2219998836517334,3.193000078201294 -8.666000366210938,-5.2820000648498535z"></path>
            </g>
            <g
                opacity="1"
                transform="matrix(1,0,0,1,10.178999900817871,23.385000228881836)">
                <path
                    fill="rgb(60,145,218)"
                    fill-opacity="1"
                    d=" M-6.932000160217285,-4.451000213623047 C-6.932000160217285,-4.451000213623047 -6.290999889373779,-6.178999900817871 -6.290999889373779,-6.178999900817871 C-2.5350000858306885,0.23800000548362732 3.2049999237060547,3.930999994277954 6.932000160217285,5.78000020980835 C6.230999946594238,5.934999942779541 5.432000160217285,6.068999767303467 4.52400016784668,6.178999900817871 C0.9629999995231628,4.176000118255615 -3.571000099182129,0.8180000185966492 -6.932000160217285,-4.451000213623047z"></path>
            </g>
            <g opacity="1" transform="matrix(1,0,0,1,5.355000019073486,25.650999069213867)">
                <path
                    fill="rgb(237,70,131)"
                    fill-opacity="1"
                    d=" M-3.0409998893737793,-4.205999851226807 C-1.1200000047683716,-0.1509999930858612 1.7380000352859497,2.625 3.7300000190734863,4.205999851226807 C2.8510000705718994,4.196000099182129 2.059000015258789,4.156000137329102 1.343999981880188,4.09499979019165 C-0.31700000166893005,2.568000078201294 -2.2049999237060547,0.43299999833106995 -3.7300000190734863,-2.3580000400543213 C-3.7300000190734863,-2.3580000400543213 -3.0409998893737793,-4.205999851226807 -3.0409998893737793,-4.205999851226807z"></path>
            </g>
            <g
                opacity="1"
                transform="matrix(1,0,0,1,13.076000213623047,14.739999771118164)">
                <path
                    fill="rgb(60,145,218)"
                    fill-opacity="1"
                    d=" M-6.671000003814697,-4.306000232696533 C-6.671000003814697,-4.306000232696533 -6.013000011444092,-6.072000026702881 -6.013000011444092,-6.072000026702881 C-2.506999969482422,0.28299999237060547 2.9630000591278076,3.13100004196167 5.815999984741211,4.236999988555908 C5.815999984741211,4.236999988555908 6.671000003814697,6.072000026702881 6.671000003814697,6.072000026702881 C4.491000175476074,5.427999973297119 -2.2149999141693115,2.934000015258789 -6.671000003814697,-4.306000232696533z"></path>
            </g>
            <g opacity="1" transform="matrix(1,0,0,1,12.107999801635742,8.642000198364258)">
                <path
                    fill="rgb(237,70,131)"
                    fill-opacity="1"
                    d=" M-4.105999946594238,-2.500999927520752 C-4.105999946594238,-2.500999927520752 -3.3399999141693115,-4.565999984741211 -3.3399999141693115,-4.565999984741211 C-2.1710000038146973,-0.7350000143051147 0.9789999723434448,1.4589999914169312 3.1730000972747803,2.559999942779541 C3.1730000972747803,2.559999942779541 4.105999946594238,4.565999984741211 4.105999946594238,4.565999984741211 C2.193000078201294,3.8489999771118164 -2.056999921798706,1.8300000429153442 -4.105999946594238,-2.500999927520752z"></path>
            </g>
            <g
                opacity="1"
                transform="matrix(1,0,0,1,11.270999908447266,3.9230000972747803)">
                <path
                    fill="rgb(60,145,218)"
                    fill-opacity="1"
                    d=" M-1.9700000286102295,-1.277999997138977 C-1.9700000286102295,-1.277999997138977 -1.3700000047683716,-2.8889999389648438 -1.3700000047683716,-2.8889999389648438 C-0.7889999747276306,-1.2209999561309814 0.11100000143051147,-0.07000000029802322 0.9589999914169312,0.7129999995231628 C0.9589999914169312,0.7129999995231628 1.9700000286102295,2.8889999389648438 1.9700000286102295,2.8889999389648438 C0.9459999799728394,2.318000078201294 -0.7929999828338623,1.0679999589920044 -1.9700000286102295,-1.277999997138977z"></path>
            </g>
        </g>
        <g
            transform="matrix(0.9999945759773254,0,0,0.9999945759773254,257.12640380859375,255.4182586669922)"
            opacity="1"
            style="display: block;">
            <g opacity="1" transform="matrix(1,0,0,1,0,0)">
                <path
                    stroke-linecap="butt"
                    stroke-linejoin="miter"
                    fill-opacity="0"
                    stroke-miterlimit="4"
                    stroke="rgb(40,209,209)"
                    stroke-opacity="1"
                    stroke-width="3"
                    d=" M-21.125,-12.5 C-21.125,-12.5 5.25,1.875 18.25,-22 C21.29800033569336,-27.597999572753906 19.850000381469727,-37.599998474121094 14.625,-41.25 C8.508999824523926,-45.52199935913086 -1.75,-48.25 -7.75,-40.75 C-18.209999084472656,-27.673999786376953 -5.39900016784668,-19.753999710083008 -0.968999981880188,-19.959999084472656 C3.7119998931884766,-20.17799949645996 9.125,-21 9.604999542236328,-29.22599983215332 C9.8100004196167,-32.731998443603516 4.763000011444092,-36.39500045776367 1.315000057220459,-35.72800064086914 C-7.625,-34 -3.125,-23.625 3.625,-29"></path>
            </g>
            <g opacity="1" transform="matrix(1,0,0,1,0,0)">
                <path
                    stroke-linecap="round"
                    stroke-linejoin="round"
                    fill-opacity="0"
                    stroke-dasharray=" 2 4"
                    stroke-dashoffset="0"
                    stroke="rgb(217,221,142)"
                    stroke-opacity="1"
                    stroke-width="1"
                    d=" M-21.125,-12.5 C-21.125,-12.5 5.25,1.875 18.25,-22 C21.29800033569336,-27.597999572753906 19.850000381469727,-37.599998474121094 14.625,-41.25 C8.508999824523926,-45.52199935913086 -1.75,-48.25 -7.75,-40.75 C-18.209999084472656,-27.673999786376953 -5.39900016784668,-19.753999710083008 -0.968999981880188,-19.959999084472656 C3.7119998931884766,-20.17799949645996 9.125,-21 9.604999542236328,-29.22599983215332 C9.8100004196167,-32.731998443603516 4.763000011444092,-36.39500045776367 1.315000057220459,-35.72800064086914 C-7.625,-34 -3.125,-23.625 3.625,-29"></path>
            </g>
        </g>
        <g
            transform="matrix(2.2199900150299072,0,0,2.2199900150299072,215.055908203125,209.1766815185547)"
            opacity="1"
            style="display: block;">
            <g opacity="1" transform="matrix(1,0,0,1,7.627999782562256,13.944999694824219)">
                <path
                    fill="rgb(255,223,128)"
                    fill-opacity="1"
                    d=" M0.35100001096725464,-0.11100000143051147 C0.35100001096725464,-0.11100000143051147 -0.09399999678134918,-0.35499998927116394 -0.09399999678134918,-0.35499998927116394 C-0.22300000488758087,-0.4259999990463257 -0.38600000739097595,-0.3790000081062317 -0.4560000002384186,-0.25 C-0.5270000100135803,-0.12099999934434891 -0.4790000021457672,0.03999999910593033 -0.3499999940395355,0.11100000143051147 C-0.3499999940395355,0.11100000143051147 -0.3499999940395355,0.11100000143051147 -0.3499999940395355,0.11100000143051147 C-0.3499999940395355,0.11100000143051147 0.09600000083446503,0.35499998927116394 0.09600000083446503,0.35499998927116394 C0.22499999403953552,0.4259999990463257 0.38600000739097595,0.3790000081062317 0.4560000002384186,0.25099998712539673 C0.5270000100135803,0.12200000137090683 0.47999998927116394,-0.03999999910593033 0.35100001096725464,-0.11100000143051147z"></path>
            </g>
            <g opacity="1" transform="matrix(1,0,0,1,5.547999858856201,13.069999694824219)">
                <path
                    fill="rgb(237,70,131)"
                    fill-opacity="1"
                    d=" M-5.160999774932861,-2.680999994277954 C-5.297999858856201,-2.430000066757202 -5.210999965667725,-2.1010000705718994 -4.9670000076293945,-1.9520000219345093 C-4.9670000076293945,-1.9520000219345093 3.5230000019073486,3.4159998893737793 3.5230000019073486,3.4159998893737793 C3.7679998874664307,3.565999984741211 4.078999996185303,3.4820001125335693 4.2170000076293945,3.2309999465942383 C4.2170000076293945,3.2309999465942383 5.159999847412109,1.5119999647140503 5.159999847412109,1.5119999647140503 C5.297999858856201,1.2610000371932983 5.199999809265137,0.953000009059906 4.942999839782715,0.8270000219345093 C4.942999839782715,0.8270000219345093 -4.151000022888184,-3.440999984741211 -4.151000022888184,-3.440999984741211 C-4.4079999923706055,-3.566999912261963 -4.730999946594238,-3.4639999866485596 -4.868000030517578,-3.2130000591278076 C-4.868000030517578,-3.2130000591278076 -5.160999774932861,-2.680999994277954 -5.160999774932861,-2.680999994277954z"></path>
            </g>
            <g
                opacity="1"
                transform="matrix(1,0,0,1,3.5139999389648438,11.899999618530273)">
                <path
                    fill="rgb(128,36,84)"
                    fill-opacity="1"
                    d=" M-2.117000102996826,-2.2709999084472656 C-2.117000102996826,-2.2709999084472656 3.2639999389648438,0.25600001215934753 3.2639999389648438,0.25600001215934753 C3.2639999389648438,0.25600001215934753 2.0910000801086426,2.3959999084472656 2.0910000801086426,2.3959999084472656 C2.0910000801086426,2.3959999084472656 -2.931999921798706,-0.7829999923706055 -2.931999921798706,-0.7829999923706055 C-3.177000045776367,-0.9319999814033508 -3.2639999389648438,-1.2589999437332153 -3.127000093460083,-1.5099999904632568 C-3.127000093460083,-1.5099999904632568 -2.8350000381469727,-2.0420000553131104 -2.8350000381469727,-2.0420000553131104 C-2.697999954223633,-2.2929999828338623 -2.374000072479248,-2.3959999084472656 -2.117000102996826,-2.2709999084472656z"></path>
            </g>
        </g>
        <g
            transform="matrix(2.2199900150299072,0,0,2.2199900150299072,198.9062042236328,226.0532684326172)"
            opacity="1"
            style="display: block;">
            <g opacity="1" transform="matrix(1,0,0,1,4.793000221252441,1.6549999713897705)">
                <path
                    fill="rgb(0,0,0)"
                    fill-opacity="1"
                    d=" M2.38100004196167,0.024000000208616257 C3.569000005722046,-0.7490000128746033 4.7270002365112305,0.27799999713897705 4.7270002365112305,0.27799999713897705 C4.2789998054504395,1.00600004196167 4.171000003814697,0.3370000123977661 3.447999954223633,0.7699999809265137 C2.7209999561309814,1.2130000591278076 3.312999963760376,1.9819999933242798 2.4809999465942383,1.9880000352859497 C2.0840001106262207,1.8539999723434448 2.062999963760376,0.2549999952316284 2.38100004196167,0.024000000208616257z"></path>
            </g>
        </g>
        <g
            clip-path="url(#__lottie_element_620)"
            style="display: block;"
            transform="matrix(1.0385746955871582,-0.054429393261671066,0.054429393261671066,1.0385746955871582,-12.75103759765625,9.963668823242188)"
            opacity="1">
            <g
                transform="matrix(2.154738426208496,-0.1506739854812622,0.1506739854812622,2.154738426208496,305.98052978515625,188.08184814453125)"
                opacity="1"
                style="display: block;">
                <g
                    opacity="1"
                    transform="matrix(1,0,0,1,13.710000038146973,12.053999900817871)">
                    <path
                        fill="rgb(8,176,188)"
                        fill-opacity="1"
                        d=" M1.7829999923706055,1.9110000133514404 C1.7829999923706055,1.9110000133514404 1.7829999923706055,1.9110000133514404 1.7829999923706055,1.9110000133514404 C1.7829999923706055,1.9110000133514404 1.2710000276565552,-1.9110000133514404 1.2710000276565552,-1.9110000133514404 C1.2710000276565552,-1.9110000133514404 -1.7829999923706055,0.4429999887943268 -1.7829999923706055,0.4429999887943268 C-1.7829999923706055,0.4429999887943268 1.7829999923706055,1.9110000133514404 1.7829999923706055,1.9110000133514404z"></path>
                </g>
                <g
                    opacity="1"
                    transform="matrix(1,0,0,1,13.710000038146973,12.642999649047852)">
                    <path
                        fill="rgb(40,209,209)"
                        fill-opacity="1"
                        d=" M1.7829999923706055,1.3220000267028809 C1.7829999923706055,1.3220000267028809 -1.7829999923706055,-0.14499999582767487 -1.7829999923706055,-0.14499999582767487 C-1.7829999923706055,-0.14499999582767487 -0.25600001215934753,-1.3220000267028809 -0.25600001215934753,-1.3220000267028809 C-0.25600001215934753,-1.3220000267028809 1.7829999923706055,1.3220000267028809 1.7829999923706055,1.3220000267028809z"></path>
                </g>
                <g opacity="1" transform="matrix(1,0,0,1,8.883000373840332,15.373000144958496)">
                    <path
                        fill="rgb(255,205,77)"
                        fill-opacity="1"
                        d=" M1.6970000267028809,1.9270000457763672 C1.6970000267028809,1.9270000457763672 1.6970000267028809,1.9270000457763672 1.6970000267028809,1.9270000457763672 C1.6970000267028809,1.9270000457763672 1.5850000381469727,-1.9270000457763672 1.5850000381469727,-1.9270000457763672 C1.5850000381469727,-1.9270000457763672 -1.6970000267028809,0.09700000286102295 -1.6970000267028809,0.09700000286102295 C-1.6970000267028809,0.09700000286102295 1.6970000267028809,1.9270000457763672 1.6970000267028809,1.9270000457763672z"></path>
                </g>
                <g opacity="1" transform="matrix(1,0,0,1,8.883000373840332,15.878999710083008)">
                    <path
                        fill="rgb(255,223,128)"
                        fill-opacity="1"
                        d=" M1.6970000267028809,1.4210000038146973 C1.6970000267028809,1.4210000038146973 -1.6970000267028809,-0.4090000092983246 -1.6970000267028809,-0.4090000092983246 C-1.6970000267028809,-0.4090000092983246 -0.0560000017285347,-1.4210000038146973 -0.0560000017285347,-1.4210000038146973 C-0.0560000017285347,-1.4210000038146973 1.6970000267028809,1.4210000038146973 1.6970000267028809,1.4210000038146973z"></path>
                </g>
                <g opacity="1" transform="matrix(1,0,0,1,3.7960000038146973,18.10099983215332)">
                    <path
                        fill="rgb(237,70,131)"
                        fill-opacity="1"
                        d=" M1.2699999809265137,1.9110000133514404 C1.2699999809265137,1.9110000133514404 1.2699999809265137,1.9110000133514404 1.2699999809265137,1.9110000133514404 C1.2699999809265137,1.9110000133514404 1.7829999923706055,-1.9110000133514404 1.7829999923706055,-1.9110000133514404 C1.7829999923706055,-1.9110000133514404 -1.7829999923706055,-0.4449999928474426 -1.7829999923706055,-0.4449999928474426 C-1.7829999923706055,-0.4449999928474426 1.2699999809265137,1.9110000133514404 1.2699999809265137,1.9110000133514404z"></path>
                </g>
                <g
                    opacity="1"
                    transform="matrix(1,0,0,1,3.5399999618530273,18.468000411987305)">
                    <path
                        fill="rgb(245,109,159)"
                        fill-opacity="1"
                        d=" M1.5269999504089355,1.5440000295639038 C1.5269999504089355,1.5440000295639038 -1.5269999504089355,-0.8109999895095825 -1.5269999504089355,-0.8109999895095825 C-1.5269999504089355,-0.8109999895095825 0.25699999928474426,-1.5440000295639038 0.25699999928474426,-1.5440000295639038 C0.25699999928474426,-1.5440000295639038 1.5269999504089355,1.5440000295639038 1.5269999504089355,1.5440000295639038z"></path>
                </g>
                <g opacity="1" transform="matrix(1,0,0,1,18.1200008392334,8.187999725341797)">
                    <path
                        fill="rgb(245,109,159)"
                        fill-opacity="1"
                        d=" M1.850000023841858,1.8739999532699585 C1.850000023841858,1.8739999532699585 1.850000023841858,1.8739999532699585 1.850000023841858,1.8739999532699585 C1.850000023841858,1.8739999532699585 -1.850000023841858,0.7839999794960022 -1.850000023841858,0.7839999794960022 C-1.850000023841858,0.7839999794960022 0.9419999718666077,-1.8739999532699585 0.9419999718666077,-1.8739999532699585 C0.9419999718666077,-1.8739999532699585 1.850000023841858,1.8739999532699585 1.850000023841858,1.8739999532699585z"></path>
                </g>
                <g opacity="1" transform="matrix(1,0,0,1,18.81800079345703,8.187999725341797)">
                    <path
                        fill="rgb(237,70,131)"
                        fill-opacity="1"
                        d=" M1.1519999504089355,1.8739999532699585 C1.1519999504089355,1.8739999532699585 0.24400000274181366,-1.8739999532699585 0.24400000274181366,-1.8739999532699585 C0.24400000274181366,-1.8739999532699585 -1.1519999504089355,-0.5450000166893005 -1.1519999504089355,-0.5450000166893005 C-1.1519999504089355,-0.5450000166893005 1.1519999504089355,1.8739999532699585 1.1519999504089355,1.8739999532699585z"></path>
                </g>
                <g
                    opacity="1"
                    transform="matrix(1,0,0,1,22.082000732421875,3.6440000534057617)">
                    <path
                        fill="rgb(255,223,128)"
                        fill-opacity="1"
                        d=" M1.9129999876022339,1.7760000228881836 C1.9129999876022339,1.7760000228881836 1.9129999876022339,1.7760000228881836 1.9129999876022339,1.7760000228881836 C1.9129999876022339,1.7760000228881836 -1.9129999876022339,1.2999999523162842 -1.9129999876022339,1.2999999523162842 C-1.9129999876022339,1.2999999523162842 0.41200000047683716,-1.7760000228881836 0.41200000047683716,-1.7760000228881836 C0.41200000047683716,-1.7760000228881836 1.9129999876022339,1.7760000228881836 1.9129999876022339,1.7760000228881836z"></path>
                </g>
                <g
                    opacity="1"
                    transform="matrix(1,0,0,1,22.663000106811523,3.6440000534057617)">
                    <path
                        fill="rgb(255,205,77)"
                        fill-opacity="1"
                        d=" M1.3320000171661377,1.7760000228881836 C1.3320000171661377,1.7760000228881836 -0.16899999976158142,-1.7760000228881836 -0.16899999976158142,-1.7760000228881836 C-0.16899999976158142,-1.7760000228881836 -1.3320000171661377,-0.23800000548362732 -1.3320000171661377,-0.23800000548362732 C-1.3320000171661377,-0.23800000548362732 1.3320000171661377,1.7760000228881836 1.3320000171661377,1.7760000228881836z"></path>
                </g>
                <g opacity="1" transform="matrix(1,0,0,1,11.942000389099121,9.29699993133545)">
                    <path
                        fill="rgb(128,36,84)"
                        fill-opacity="1"
                        d=" M11.692000389099121,-8.928000450134277 C6.260000228881836,-0.4259999990463257 -2.0199999809265137,5.956999778747559 -11.62399959564209,9.04699993133545 C-11.62399959564209,9.04699993133545 -11.692000389099121,8.836000442504883 -11.692000389099121,8.836000442504883 C-2.13700008392334,5.76200008392334 6.1020002365112305,-0.5889999866485596 11.505000114440918,-9.04699993133545 C11.505000114440918,-9.04699993133545 11.692000389099121,-8.928000450134277 11.692000389099121,-8.928000450134277z"></path>
                </g>
            </g>
            <g
                transform="matrix(2.2200000286102295,0,0,2.2200000286102295,320.7720031738281,217.1219940185547)"
                opacity="1"
                style="display: block;">
                <g
                    opacity="1"
                    transform="matrix(1,0,0,1,18.367000579833984,11.364999771118164)">
                    <path
                        fill="rgb(8,176,188)"
                        fill-opacity="1"
                        d=" M-0.6499999761581421,1.649999976158142 C-0.6499999761581421,1.649999976158142 1.8569999933242798,1.6970000267028809 1.8569999933242798,1.6970000267028809 C1.8569999933242798,1.6970000267028809 0.10300000011920929,-1.6970000267028809 0.10300000011920929,-1.6970000267028809 C0.10300000011920929,-1.6970000267028809 -1.8569999933242798,-0.6850000023841858 -1.8569999933242798,-0.6850000023841858 C-1.8569999933242798,-0.6850000023841858 -0.6499999761581421,1.649999976158142 -0.6499999761581421,1.649999976158142z"></path>
                </g>
                <g
                    opacity="1"
                    transform="matrix(1,0,0,1,16.132999420166016,12.883000373840332)">
                    <path
                        fill="rgb(40,209,209)"
                        fill-opacity="1"
                        d=" M1.5839999914169312,0.13199999928474426 C1.5839999914169312,0.13199999928474426 0.1720000058412552,2.2039999961853027 0.1720000058412552,2.2039999961853027 C0.1720000058412552,2.2039999961853027 -1.5839999914169312,-1.190999984741211 -1.5839999914169312,-1.190999984741211 C-1.5839999914169312,-1.190999984741211 0.37700000405311584,-2.2039999961853027 0.37700000405311584,-2.2039999961853027 C0.37700000405311584,-2.2039999961853027 1.5839999914169312,0.13199999928474426 1.5839999914169312,0.13199999928474426z"></path>
                </g>
                <g
                    opacity="1"
                    transform="matrix(1,0,0,1,11.532999992370605,14.602999687194824)">
                    <path
                        fill="rgb(255,205,77)"
                        fill-opacity="1"
                        d=" M-0.8080000281333923,1.3980000019073486 C-0.8080000281333923,1.3980000019073486 1.6660000085830688,1.805999994277954 1.6660000085830688,1.805999994277954 C1.6660000085830688,1.805999994277954 0.4189999997615814,-1.805999994277954 0.4189999997615814,-1.805999994277954 C0.4189999997615814,-1.805999994277954 -1.6660000085830688,-1.0859999656677246 -1.6660000085830688,-1.0859999656677246 C-1.6660000085830688,-1.0859999656677246 -0.8080000281333923,1.3980000019073486 -0.8080000281333923,1.3980000019073486z"></path>
                </g>
                <g opacity="1" transform="matrix(1,0,0,1,9.253999710083008,15.682999610900879)">
                    <path
                        fill="rgb(255,223,128)"
                        fill-opacity="1"
                        d=" M1.472000002861023,0.3179999887943268 C1.472000002861023,0.3179999887943268 -0.22499999403953552,2.1649999618530273 -0.22499999403953552,2.1649999618530273 C-0.22499999403953552,2.1649999618530273 -1.472000002861023,-1.4450000524520874 -1.472000002861023,-1.4450000524520874 C-1.472000002861023,-1.4450000524520874 0.6140000224113464,-2.1649999618530273 0.6140000224113464,-2.1649999618530273 C0.6140000224113464,-2.1649999618530273 1.472000002861023,0.3179999887943268 1.472000002861023,0.3179999887943268z"></path>
                </g>
                <g opacity="1" transform="matrix(1,0,0,1,4.5,16.797000885009766)">
                    <path
                        fill="rgb(237,70,131)"
                        fill-opacity="1"
                        d=" M-0.9549999833106995,1.1050000190734863 C-0.9549999833106995,1.1050000190734863 1.4299999475479126,1.878999948501587 1.4299999475479126,1.878999948501587 C1.4299999475479126,1.878999948501587 0.7400000095367432,-1.878999948501587 0.7400000095367432,-1.878999948501587 C0.7400000095367432,-1.878999948501587 -1.4299999475479126,-1.4800000190734863 -1.4299999475479126,-1.4800000190734863 C-1.4299999475479126,-1.4800000190734863 -0.9549999833106995,1.1050000190734863 -0.9549999833106995,1.1050000190734863z"></path>
                </g>
                <g
                    opacity="1"
                    transform="matrix(1,0,0,1,2.2230000495910645,17.393999099731445)">
                    <path
                        fill="rgb(245,109,159)"
                        fill-opacity="1"
                        d=" M1.3220000267028809,0.5070000290870667 C1.3220000267028809,0.5070000290870667 -0.6320000290870667,2.0769999027252197 -0.6320000290870667,2.0769999027252197 C-0.6320000290870667,2.0769999027252197 -1.3220000267028809,-1.6799999475479126 -1.3220000267028809,-1.6799999475479126 C-1.3220000267028809,-1.6799999475479126 0.847000002861023,-2.0769999027252197 0.847000002861023,-2.0769999027252197 C0.847000002861023,-2.0769999027252197 1.3220000267028809,0.5070000290870667 1.3220000267028809,0.5070000290870667z"></path>
                </g>
                <g opacity="1" transform="matrix(1,0,0,1,22.535999298095703,9.097000122070312)">
                    <path
                        fill="rgb(245,109,159)"
                        fill-opacity="1"
                        d=" M1.6619999408721924,-0.05700000002980232 C1.6619999408721924,-0.05700000002980232 0.5630000233650208,2.194999933242798 0.5630000233650208,2.194999933242798 C0.5630000233650208,2.194999933242798 -1.6619999408721924,-0.9110000133514404 -1.6619999408721924,-0.9110000133514404 C-1.6619999408721924,-0.9110000133514404 0.13099999725818634,-2.194999933242798 0.13099999725818634,-2.194999933242798 C0.13099999725818634,-2.194999933242798 1.6619999408721924,-0.05700000002980232 1.6619999408721924,-0.05700000002980232z"></path>
                </g>
                <g opacity="1" transform="matrix(1,0,0,1,24.677000045776367,7.328999996185303)">
                    <path
                        fill="rgb(237,70,131)"
                        fill-opacity="1"
                        d=" M-0.4790000021457672,1.7109999656677246 C-0.4790000021457672,1.7109999656677246 2.009000062942505,1.3960000276565552 2.009000062942505,1.3960000276565552 C2.009000062942505,1.3960000276565552 -0.2150000035762787,-1.7109999656677246 -0.2150000035762787,-1.7109999656677246 C-0.2150000035762787,-1.7109999656677246 -2.009000062942505,-0.4269999861717224 -2.009000062942505,-0.4269999861717224 C-2.009000062942505,-0.4269999861717224 -0.4790000021457672,1.7109999656677246 -0.4790000021457672,1.7109999656677246z"></path>
                </g>
                <g opacity="1" transform="matrix(1,0,0,1,28.194000244140625,4.535999774932861)">
                    <path
                        fill="rgb(255,223,128)"
                        fill-opacity="1"
                        d=" M1.7070000171661377,-0.2549999952316284 C1.7070000171661377,-0.2549999952316284 0.9589999914169312,2.138000011444092 0.9589999914169312,2.138000011444092 C0.9589999914169312,2.138000011444092 -1.7070000171661377,-0.5979999899864197 -1.7070000171661377,-0.5979999899864197 C-1.7070000171661377,-0.5979999899864197 -0.12600000202655792,-2.138000011444092 -0.12600000202655792,-2.138000011444092 C-0.12600000202655792,-2.138000011444092 1.7070000171661377,-0.2549999952316284 1.7070000171661377,-0.2549999952316284z"></path>
                </g>
                <g opacity="1" transform="matrix(1,0,0,1,30.19099998474121,2.571000099182129)">
                    <path
                        fill="rgb(255,205,77)"
                        fill-opacity="1"
                        d=" M-0.289000004529953,1.7100000381469727 C-0.289000004529953,1.7100000381469727 2.121999979019165,1.0269999504089355 2.121999979019165,1.0269999504089355 C2.121999979019165,1.0269999504089355 -0.5440000295639038,-1.7100000381469727 -0.5440000295639038,-1.7100000381469727 C-0.5440000295639038,-1.7100000381469727 -2.121999979019165,-0.17299999296665192 -2.121999979019165,-0.17299999296665192 C-2.121999979019165,-0.17299999296665192 -0.289000004529953,1.7100000381469727 -0.289000004529953,1.7100000381469727z"></path>
                </g>
                <g opacity="1" transform="matrix(1,0,0,1,15.236000061035156,8.083999633789062)">
                    <path
                        fill="rgb(128,36,84)"
                        fill-opacity="1"
                        d=" M13.640999794006348,-6.242000102996826 C5.935999870300293,1.4299999475479126 -4.14300012588501,6.406000137329102 -14.949000358581543,7.834000110626221 C-14.949000358581543,7.834000110626221 -14.987000465393066,7.546000003814697 -14.987000465393066,7.546000003814697 C-3.6070001125335693,6.041999816894531 6.965000152587891,0.578000009059906 14.77400016784668,-7.834000110626221 C14.77400016784668,-7.834000110626221 14.987000465393066,-7.636000156402588 14.987000465393066,-7.636000156402588 C14.54699993133545,-7.1620001792907715 14.097999572753906,-6.697000026702881 13.640999794006348,-6.242000102996826z"></path>
                </g>
            </g>
            <g
                transform="matrix(2.2200000286102295,0,0,2.2200000286102295,315.79998779296875,285.432861328125)"
                opacity="1"
                style="display: block;">
                <g opacity="1" transform="matrix(1,0,0,1,19.233999252319336,11.27299976348877)">
                    <path
                        fill="rgb(8,176,188)"
                        fill-opacity="1"
                        d=" M-1.5770000219345093,0.3840000033378601 C-1.5770000219345093,0.3840000033378601 0.32199999690055847,2.3459999561309814 0.32199999690055847,2.3459999561309814 C0.32199999690055847,2.3459999561309814 1.5770000219345093,-1.621000051498413 1.5770000219345093,-1.621000051498413 C1.5770000219345093,-1.621000051498413 -0.7139999866485596,-2.3459999561309814 -0.7139999866485596,-2.3459999561309814 C-0.7139999866485596,-2.3459999561309814 -1.5770000219345093,0.3840000033378601 -1.5770000219345093,0.3840000033378601z"></path>
                </g>
                <g opacity="1" transform="matrix(1,0,0,1,16.74799919128418,10.187000274658203)">
                    <path
                        fill="rgb(40,209,209)"
                        fill-opacity="1"
                        d=" M0.9100000262260437,1.4700000286102295 C0.9100000262260437,1.4700000286102295 -1.7730000019073486,1.9839999675750732 -1.7730000019073486,1.9839999675750732 C-1.7730000019073486,1.9839999675750732 -0.5189999938011169,-1.9839999675750732 -0.5189999938011169,-1.9839999675750732 C-0.5189999938011169,-1.9839999675750732 1.7730000019073486,-1.2599999904632568 1.7730000019073486,-1.2599999904632568 C1.7730000019073486,-1.2599999904632568 0.9100000262260437,1.4700000286102295 0.9100000262260437,1.4700000286102295z"></path>
                </g>
                <g opacity="1" transform="matrix(1,0,0,1,11.670999526977539,8.406999588012695)">
                    <path
                        fill="rgb(255,205,77)"
                        fill-opacity="1"
                        d=" M-1.7039999961853027,0.1809999942779541 C-1.7039999961853027,0.1809999942779541 -0.1080000028014183,2.3959999084472656 -0.1080000028014183,2.3959999084472656 C-0.1080000028014183,2.3959999084472656 1.7039999961853027,-1.3489999771118164 1.7039999961853027,-1.3489999771118164 C1.7039999961853027,-1.3489999771118164 -0.4580000042915344,-2.3959999084472656 -0.4580000042915344,-2.3959999084472656 C-0.4580000042915344,-2.3959999084472656 -1.7039999961853027,0.1809999942779541 -1.7039999961853027,0.1809999942779541z"></path>
                </g>
                <g opacity="1" transform="matrix(1,0,0,1,9.22599983215332,6.8379998207092285)">
                    <path
                        fill="rgb(255,223,128)"
                        fill-opacity="1"
                        d=" M0.7409999966621399,1.7510000467300415 C0.7409999966621399,1.7510000467300415 -1.9880000352859497,1.871999979019165 -1.9880000352859497,1.871999979019165 C-1.9880000352859497,1.871999979019165 -0.17399999499320984,-1.871999979019165 -0.17399999499320984,-1.871999979019165 C-0.17399999499320984,-1.871999979019165 1.9880000352859497,-0.8270000219345093 1.9880000352859497,-0.8270000219345093 C1.9880000352859497,-0.8270000219345093 0.7409999966621399,1.7510000467300415 0.7409999966621399,1.7510000467300415z"></path>
                </g>
                <g opacity="1" transform="matrix(1,0,0,1,4.765999794006348,4.572000026702881)">
                    <path
                        fill="rgb(237,70,131)"
                        fill-opacity="1"
                        d=" M-1.8009999990463257,-0.03500000014901161 C-1.8009999990463257,-0.03500000014901161 -0.5550000071525574,2.3949999809265137 -0.5550000071525574,2.3949999809265137 C-0.5550000071525574,2.3949999809265137 1.8009999990463257,-1.034999966621399 1.8009999990463257,-1.034999966621399 C1.8009999990463257,-1.034999966621399 -0.1809999942779541,-2.3949999809265137 -0.1809999942779541,-2.3949999809265137 C-0.1809999942779541,-2.3949999809265137 -1.8009999990463257,-0.03500000014901161 -1.8009999990463257,-0.03500000014901161z"></path>
                </g>
                <g opacity="1" transform="matrix(1,0,0,1,2.4179999828338623,2.677000045776367)">
                    <path
                        fill="rgb(245,109,159)"
                        fill-opacity="1"
                        d=" M0.5479999780654907,1.8600000143051147 C0.5479999780654907,1.8600000143051147 -2.1679999828338623,1.5700000524520874 -2.1679999828338623,1.5700000524520874 C-2.1679999828338623,1.5700000524520874 0.18799999356269836,-1.8600000143051147 0.18799999356269836,-1.8600000143051147 C0.18799999356269836,-1.8600000143051147 2.1679999828338623,-0.5 2.1679999828338623,-0.5 C2.1679999828338623,-0.5 0.5479999780654907,1.8600000143051147 0.5479999780654907,1.8600000143051147z"></path>
                </g>
                <g opacity="1" transform="matrix(1,0,0,1,24.6560001373291,12.41100025177002)">
                    <path
                        fill="rgb(245,109,159)"
                        fill-opacity="1"
                        d=" M1.059000015258789,1.1579999923706055 C1.059000015258789,1.1579999923706055 -1.5210000276565552,2.052999973297119 -1.5210000276565552,2.052999973297119 C-1.5210000276565552,2.052999973297119 -0.8510000109672546,-2.052999973297119 -0.8510000109672546,-2.052999973297119 C-0.8510000109672546,-2.052999973297119 1.5210000276565552,-1.6670000553131104 1.5210000276565552,-1.6670000553131104 C1.5210000276565552,-1.6670000553131104 1.059000015258789,1.1579999923706055 1.059000015258789,1.1579999923706055z"></path>
                </g>
                <g
                    opacity="1"
                    transform="matrix(1,0,0,1,27.131000518798828,12.991000175476074)">
                    <path
                        fill="rgb(237,70,131)"
                        fill-opacity="1"
                        d=" M-1.4170000553131104,0.578000009059906 C-1.4170000553131104,0.578000009059906 0.746999979019165,2.246999979019165 0.746999979019165,2.246999979019165 C0.746999979019165,2.246999979019165 1.4170000553131104,-1.8589999675750732 1.4170000553131104,-1.8589999675750732 C1.4170000553131104,-1.8589999675750732 -0.9549999833106995,-2.246999979019165 -0.9549999833106995,-2.246999979019165 C-0.9549999833106995,-2.246999979019165 -1.4170000553131104,0.578000009059906 -1.4170000553131104,0.578000009059906z"></path>
                </g>
                <g opacity="1" transform="matrix(1,0,0,1,32.58100128173828,13.472000122070312)">
                    <path
                        fill="rgb(255,223,128)"
                        fill-opacity="1"
                        d=" M1.1929999589920044,0.8090000152587891 C1.1929999589920044,0.8090000152587891 -1.225000023841858,2.0810000896453857 -1.225000023841858,2.0810000896453857 C-1.225000023841858,2.0810000896453857 -1.1779999732971191,-2.0810000896453857 -1.1779999732971191,-2.0810000896453857 C-1.1779999732971191,-2.0810000896453857 1.225000023841858,-2.055000066757202 1.225000023841858,-2.055000066757202 C1.225000023841858,-2.055000066757202 1.1929999589920044,0.8090000152587891 1.1929999589920044,0.8090000152587891z"></path>
                </g>
                <g opacity="1" transform="matrix(1,0,0,1,34.9900016784668,13.51099967956543)">
                    <path
                        fill="rgb(255,205,77)"
                        fill-opacity="1"
                        d=" M-1.2170000076293945,0.7689999938011169 C-1.2170000076293945,0.7689999938011169 1.1710000038146973,2.0940001010894775 1.1710000038146973,2.0940001010894775 C1.1710000038146973,2.0940001010894775 1.2170000076293945,-2.066999912261963 1.2170000076293945,-2.066999912261963 C1.2170000076293945,-2.066999912261963 -1.184999942779541,-2.0940001010894775 -1.184999942779541,-2.0940001010894775 C-1.184999942779541,-2.0940001010894775 -1.2170000076293945,0.7689999938011169 -1.2170000076293945,0.7689999938011169z"></path>
                </g>
                <g opacity="1" transform="matrix(1,0,0,1,19.472000122070312,5.997000217437744)">
                    <path
                        fill="rgb(128,36,84)"
                        fill-opacity="1"
                        d=" M15.38599967956543,5.61299991607666 C3.5439999103546143,5.61299991607666 -8.057999610900879,1.7070000171661377 -17.4950008392334,-5.494999885559082 C-17.4950008392334,-5.494999885559082 -17.30299949645996,-5.747000217437744 -17.30299949645996,-5.747000217437744 C-7.363999843597412,1.8389999866485596 4.992000102996826,5.747000217437744 17.483999252319336,5.25600004196167 C17.483999252319336,5.25600004196167 17.4950008392334,5.572000026702881 17.4950008392334,5.572000026702881 C16.791000366210938,5.599999904632568 16.08799934387207,5.61299991607666 15.38599967956543,5.61299991607666z"></path>
                </g>
            </g>
            <g
                transform="matrix(2.2034525871276855,-0.2705499529838562,0.2705499529838562,2.2034525871276855,170.8207550048828,337.24755859375)"
                opacity="1"
                style="display: block;">
                <g
                    opacity="1"
                    transform="matrix(1,0,0,1,19.006000518798828,16.698999404907227)">
                    <path
                        fill="rgb(8,176,188)"
                        fill-opacity="1"
                        d=" M2.4839999675750732,2.6630001068115234 C2.4839999675750732,2.6630001068115234 2.4839999675750732,2.6630001068115234 2.4839999675750732,2.6630001068115234 C2.4839999675750732,2.6630001068115234 1.7710000276565552,-2.6630001068115234 1.7710000276565552,-2.6630001068115234 C1.7710000276565552,-2.6630001068115234 -2.4839999675750732,0.6179999709129333 -2.4839999675750732,0.6179999709129333 C-2.4839999675750732,0.6179999709129333 2.4839999675750732,2.6630001068115234 2.4839999675750732,2.6630001068115234z"></path>
                </g>
                <g opacity="1" transform="matrix(1,0,0,1,19.006000518798828,17.51799964904785)">
                    <path
                        fill="rgb(40,209,209)"
                        fill-opacity="1"
                        d=" M2.4839999675750732,1.843000054359436 C2.4839999675750732,1.843000054359436 -2.4839999675750732,-0.20200000703334808 -2.4839999675750732,-0.20200000703334808 C-2.4839999675750732,-0.20200000703334808 -0.3569999933242798,-1.843000054359436 -0.3569999933242798,-1.843000054359436 C-0.3569999933242798,-1.843000054359436 2.4839999675750732,1.843000054359436 2.4839999675750732,1.843000054359436z"></path>
                </g>
                <g
                    opacity="1"
                    transform="matrix(1,0,0,1,12.279999732971191,21.322999954223633)">
                    <path
                        fill="rgb(255,205,77)"
                        fill-opacity="1"
                        d=" M2.365000009536743,2.686000108718872 C2.365000009536743,2.686000108718872 2.365000009536743,2.686000108718872 2.365000009536743,2.686000108718872 C2.365000009536743,2.686000108718872 2.2079999446868896,-2.686000108718872 2.2079999446868896,-2.686000108718872 C2.2079999446868896,-2.686000108718872 -2.365000009536743,0.13500000536441803 -2.365000009536743,0.13500000536441803 C-2.365000009536743,0.13500000536441803 2.365000009536743,2.686000108718872 2.365000009536743,2.686000108718872z"></path>
                </g>
                <g opacity="1" transform="matrix(1,0,0,1,12.279999732971191,22.02899932861328)">
                    <path
                        fill="rgb(255,223,128)"
                        fill-opacity="1"
                        d=" M2.365000009536743,1.9800000190734863 C2.365000009536743,1.9800000190734863 -2.365000009536743,-0.5699999928474426 -2.365000009536743,-0.5699999928474426 C-2.365000009536743,-0.5699999928474426 -0.07900000363588333,-1.9800000190734863 -0.07900000363588333,-1.9800000190734863 C-0.07900000363588333,-1.9800000190734863 2.365000009536743,1.9800000190734863 2.365000009536743,1.9800000190734863z"></path>
                </g>
                <g opacity="1" transform="matrix(1,0,0,1,5.190999984741211,25.125)">
                    <path
                        fill="rgb(237,70,131)"
                        fill-opacity="1"
                        d=" M1.7699999809265137,2.6630001068115234 C1.7699999809265137,2.6630001068115234 1.7699999809265137,2.6630001068115234 1.7699999809265137,2.6630001068115234 C1.7699999809265137,2.6630001068115234 2.4839999675750732,-2.6630001068115234 2.4839999675750732,-2.6630001068115234 C2.4839999675750732,-2.6630001068115234 -2.4839999675750732,-0.6200000047683716 -2.4839999675750732,-0.6200000047683716 C-2.4839999675750732,-0.6200000047683716 1.7699999809265137,2.6630001068115234 1.7699999809265137,2.6630001068115234z"></path>
                </g>
                <g opacity="1" transform="matrix(1,0,0,1,4.834000110626221,25.63599967956543)">
                    <path
                        fill="rgb(245,109,159)"
                        fill-opacity="1"
                        d=" M2.127000093460083,2.1519999504089355 C2.127000093460083,2.1519999504089355 -2.127000093460083,-1.13100004196167 -2.127000093460083,-1.13100004196167 C-2.127000093460083,-1.13100004196167 0.3569999933242798,-2.1519999504089355 0.3569999933242798,-2.1519999504089355 C0.3569999933242798,-2.1519999504089355 2.127000093460083,2.1519999504089355 2.127000093460083,2.1519999504089355z"></path>
                </g>
                <g
                    opacity="1"
                    transform="matrix(1,0,0,1,25.149999618530273,11.312000274658203)">
                    <path
                        fill="rgb(245,109,159)"
                        fill-opacity="1"
                        d=" M2.5769999027252197,2.6110000610351562 C2.5769999027252197,2.6110000610351562 2.5769999027252197,2.6110000610351562 2.5769999027252197,2.6110000610351562 C2.5769999027252197,2.6110000610351562 -2.5769999027252197,1.093999981880188 -2.5769999027252197,1.093999981880188 C-2.5769999027252197,1.093999981880188 1.3140000104904175,-2.6110000610351562 1.3140000104904175,-2.6110000610351562 C1.3140000104904175,-2.6110000610351562 2.5769999027252197,2.6110000610351562 2.5769999027252197,2.6110000610351562z"></path>
                </g>
                <g opacity="1" transform="matrix(1,0,0,1,26.12299919128418,11.312000274658203)">
                    <path
                        fill="rgb(237,70,131)"
                        fill-opacity="1"
                        d=" M1.6039999723434448,2.6110000610351562 C1.6039999723434448,2.6110000610351562 0.3409999907016754,-2.6110000610351562 0.3409999907016754,-2.6110000610351562 C0.3409999907016754,-2.6110000610351562 -1.6039999723434448,-0.7580000162124634 -1.6039999723434448,-0.7580000162124634 C-1.6039999723434448,-0.7580000162124634 1.6039999723434448,2.6110000610351562 1.6039999723434448,2.6110000610351562z"></path>
                </g>
                <g opacity="1" transform="matrix(1,0,0,1,30.67099952697754,4.980000019073486)">
                    <path
                        fill="rgb(255,223,128)"
                        fill-opacity="1"
                        d=" M2.6659998893737793,2.4749999046325684 C2.6659998893737793,2.4749999046325684 2.6659998893737793,2.4749999046325684 2.6659998893737793,2.4749999046325684 C2.6659998893737793,2.4749999046325684 -2.6659998893737793,1.812000036239624 -2.6659998893737793,1.812000036239624 C-2.6659998893737793,1.812000036239624 0.5740000009536743,-2.4749999046325684 0.5740000009536743,-2.4749999046325684 C0.5740000009536743,-2.4749999046325684 2.6659998893737793,2.4749999046325684 2.6659998893737793,2.4749999046325684z"></path>
                </g>
                <g opacity="1" transform="matrix(1,0,0,1,31.481000900268555,4.980000019073486)">
                    <path
                        fill="rgb(255,205,77)"
                        fill-opacity="1"
                        d=" M1.8550000190734863,2.4749999046325684 C1.8550000190734863,2.4749999046325684 -0.23600000143051147,-2.4749999046325684 -0.23600000143051147,-2.4749999046325684 C-0.23600000143051147,-2.4749999046325684 -1.8550000190734863,-0.3310000002384186 -1.8550000190734863,-0.3310000002384186 C-1.8550000190734863,-0.3310000002384186 1.8550000190734863,2.4749999046325684 1.8550000190734863,2.4749999046325684z"></path>
                </g>
                <g opacity="1" transform="matrix(1,0,0,1,16.54199981689453,12.855999946594238)">
                    <path
                        fill="rgb(128,36,84)"
                        fill-opacity="1"
                        d=" M16.29199981689453,-12.439000129699707 C8.723999977111816,-0.5920000076293945 -2.813999891281128,8.302000045776367 -16.19700050354004,12.605999946594238 C-16.19700050354004,12.605999946594238 -16.29199981689453,12.312000274658203 -16.29199981689453,12.312000274658203 C-2.9779999256134033,8.029999732971191 8.50100040435791,-0.8190000057220459 16.0310001373291,-12.605999946594238 C16.0310001373291,-12.605999946594238 16.29199981689453,-12.439000129699707 16.29199981689453,-12.439000129699707z"></path>
                </g>
            </g>
            <g
                transform="matrix(2.2200000286102295,0,0,2.2200000286102295,109.7111587524414,258.3393249511719)"
                opacity="1"
                style="display: block;">
                <g
                    opacity="1"
                    transform="matrix(1,0,0,1,20.045000076293945,11.744000434875488)">
                    <path
                        fill="rgb(8,176,188)"
                        fill-opacity="1"
                        d=" M-1.6440000534057617,0.4000000059604645 C-1.6440000534057617,0.4000000059604645 0.33500000834465027,2.446000099182129 0.33500000834465027,2.446000099182129 C0.33500000834465027,2.446000099182129 1.6440000534057617,-1.690999984741211 1.6440000534057617,-1.690999984741211 C1.6440000534057617,-1.690999984741211 -0.7440000176429749,-2.446000099182129 -0.7440000176429749,-2.446000099182129 C-0.7440000176429749,-2.446000099182129 -1.6440000534057617,0.4000000059604645 -1.6440000534057617,0.4000000059604645z"></path>
                </g>
                <g
                    opacity="1"
                    transform="matrix(1,0,0,1,17.452999114990234,10.611000061035156)">
                    <path
                        fill="rgb(40,209,209)"
                        fill-opacity="1"
                        d=" M0.9480000138282776,1.5329999923706055 C0.9480000138282776,1.5329999923706055 -1.8480000495910645,2.069000005722046 -1.8480000495910645,2.069000005722046 C-1.8480000495910645,2.069000005722046 -0.5410000085830688,-2.069000005722046 -0.5410000085830688,-2.069000005722046 C-0.5410000085830688,-2.069000005722046 1.8480000495910645,-1.312999963760376 1.8480000495910645,-1.312999963760376 C1.8480000495910645,-1.312999963760376 0.9480000138282776,1.5329999923706055 0.9480000138282776,1.5329999923706055z"></path>
                </g>
                <g opacity="1" transform="matrix(1,0,0,1,12.159000396728516,8.755999565124512)">
                    <path
                        fill="rgb(255,205,77)"
                        fill-opacity="1"
                        d=" M-1.7769999504089355,0.18799999356269836 C-1.7769999504089355,0.18799999356269836 -0.11299999803304672,2.499000072479248 -0.11299999803304672,2.499000072479248 C-0.11299999803304672,2.499000072479248 1.7769999504089355,-1.406999945640564 1.7769999504089355,-1.406999945640564 C1.7769999504089355,-1.406999945640564 -0.47699999809265137,-2.499000072479248 -0.47699999809265137,-2.499000072479248 C-0.47699999809265137,-2.499000072479248 -1.7769999504089355,0.18799999356269836 -1.7769999504089355,0.18799999356269836z"></path>
                </g>
                <g opacity="1" transform="matrix(1,0,0,1,9.609000205993652,7.11899995803833)">
                    <path
                        fill="rgb(255,223,128)"
                        fill-opacity="1"
                        d=" M0.7720000147819519,1.8250000476837158 C0.7720000147819519,1.8250000476837158 -2.072999954223633,1.9520000219345093 -2.072999954223633,1.9520000219345093 C-2.072999954223633,1.9520000219345093 -0.18199999630451202,-1.9520000219345093 -0.18199999630451202,-1.9520000219345093 C-0.18199999630451202,-1.9520000219345093 2.072999954223633,-0.8619999885559082 2.072999954223633,-0.8619999885559082 C2.072999954223633,-0.8619999885559082 0.7720000147819519,1.8250000476837158 0.7720000147819519,1.8250000476837158z"></path>
                </g>
                <g opacity="1" transform="matrix(1,0,0,1,4.958000183105469,4.75600004196167)">
                    <path
                        fill="rgb(237,70,131)"
                        fill-opacity="1"
                        d=" M-1.878000020980835,-0.03700000047683716 C-1.878000020980835,-0.03700000047683716 -0.5789999961853027,2.497999906539917 -0.5789999961853027,2.497999906539917 C-0.5789999961853027,2.497999906539917 1.878000020980835,-1.0800000429153442 1.878000020980835,-1.0800000429153442 C1.878000020980835,-1.0800000429153442 -0.1889999955892563,-2.497999906539917 -0.1889999955892563,-2.497999906539917 C-0.1889999955892563,-2.497999906539917 -1.878000020980835,-0.03700000047683716 -1.878000020980835,-0.03700000047683716z"></path>
                </g>
                <g opacity="1" transform="matrix(1,0,0,1,2.509999990463257,2.7799999713897705)">
                    <path
                        fill="rgb(245,109,159)"
                        fill-opacity="1"
                        d=" M0.5709999799728394,1.9390000104904175 C0.5709999799728394,1.9390000104904175 -2.259999990463257,1.6380000114440918 -2.259999990463257,1.6380000114440918 C-2.259999990463257,1.6380000114440918 0.19599999487400055,-1.9390000104904175 0.19599999487400055,-1.9390000104904175 C0.19599999487400055,-1.9390000104904175 2.259999990463257,-0.5210000276565552 2.259999990463257,-0.5210000276565552 C2.259999990463257,-0.5210000276565552 0.5709999799728394,1.9390000104904175 0.5709999799728394,1.9390000104904175z"></path>
                </g>
                <g
                    opacity="1"
                    transform="matrix(1,0,0,1,25.697999954223633,12.928999900817871)">
                    <path
                        fill="rgb(245,109,159)"
                        fill-opacity="1"
                        d=" M1.1039999723434448,1.2089999914169312 C1.1039999723434448,1.2089999914169312 -1.5850000381469727,2.1410000324249268 -1.5850000381469727,2.1410000324249268 C-1.5850000381469727,2.1410000324249268 -0.8870000243186951,-2.1410000324249268 -0.8870000243186951,-2.1410000324249268 C-0.8870000243186951,-2.1410000324249268 1.5850000381469727,-1.7369999885559082 1.5850000381469727,-1.7369999885559082 C1.5850000381469727,-1.7369999885559082 1.1039999723434448,1.2089999914169312 1.1039999723434448,1.2089999914169312z"></path>
                </g>
                <g opacity="1" transform="matrix(1,0,0,1,28.27899932861328,13.53499984741211)">
                    <path
                        fill="rgb(237,70,131)"
                        fill-opacity="1"
                        d=" M-1.4769999980926514,0.6029999852180481 C-1.4769999980926514,0.6029999852180481 0.777999997138977,2.3429999351501465 0.777999997138977,2.3429999351501465 C0.777999997138977,2.3429999351501465 1.4769999980926514,-1.9390000104904175 1.4769999980926514,-1.9390000104904175 C1.4769999980926514,-1.9390000104904175 -0.9959999918937683,-2.3429999351501465 -0.9959999918937683,-2.3429999351501465 C-0.9959999918937683,-2.3429999351501465 -1.4769999980926514,0.6029999852180481 -1.4769999980926514,0.6029999852180481z"></path>
                </g>
                <g opacity="1" transform="matrix(1,0,0,1,33.96200180053711,14.036999702453613)">
                    <path
                        fill="rgb(255,223,128)"
                        fill-opacity="1"
                        d=" M1.2430000305175781,0.8420000076293945 C1.2430000305175781,0.8420000076293945 -1.2769999504089355,2.1689999103546143 -1.2769999504089355,2.1689999103546143 C-1.2769999504089355,2.1689999103546143 -1.2289999723434448,-2.1689999103546143 -1.2289999723434448,-2.1689999103546143 C-1.2289999723434448,-2.1689999103546143 1.2769999504089355,-2.1419999599456787 1.2769999504089355,-2.1419999599456787 C1.2769999504089355,-2.1419999599456787 1.2430000305175781,0.8420000076293945 1.2430000305175781,0.8420000076293945z"></path>
                </g>
                <g opacity="1" transform="matrix(1,0,0,1,36.472999572753906,14.07800006866455)">
                    <path
                        fill="rgb(255,205,77)"
                        fill-opacity="1"
                        d=" M-1.2680000066757202,0.8009999990463257 C-1.2680000066757202,0.8009999990463257 1.2209999561309814,2.184000015258789 1.2209999561309814,2.184000015258789 C1.2209999561309814,2.184000015258789 1.2680000066757202,-2.1559998989105225 1.2680000066757202,-2.1559998989105225 C1.2680000066757202,-2.1559998989105225 -1.2339999675750732,-2.184000015258789 -1.2339999675750732,-2.184000015258789 C-1.2339999675750732,-2.184000015258789 -1.2680000066757202,0.8009999990463257 -1.2680000066757202,0.8009999990463257z"></path>
                </g>
                <g opacity="1" transform="matrix(1,0,0,1,20.292999267578125,6.242000102996826)">
                    <path
                        fill="rgb(128,36,84)"
                        fill-opacity="1"
                        d=" M16.04199981689453,5.853000164031982 C3.694999933242798,5.853000164031982 -8.402999877929688,1.7799999713897705 -18.243000030517578,-5.730000019073486 C-18.243000030517578,-5.730000019073486 -18.04199981689453,-5.992000102996826 -18.04199981689453,-5.992000102996826 C-7.678999900817871,1.9170000553131104 5.203999996185303,5.992000102996826 18.229999542236328,5.480000019073486 C18.229999542236328,5.480000019073486 18.243000030517578,5.809999942779541 18.243000030517578,5.809999942779541 C17.507999420166016,5.8379998207092285 16.77400016784668,5.853000164031982 16.04199981689453,5.853000164031982z"></path>
                </g>
            </g>
        </g>
        <g
            transform="matrix(2.2169477939605713,-0.11618528515100479,0.11618528515100479,2.2169477939605713,150.45620727539062,205.60366821289062)"
            opacity="1"
            style="display: block;">
            <g
                opacity="1"
                transform="matrix(1,0,0,1,3.9629998207092285,13.105000495910645)">
                <path
                    fill="rgb(0,0,0)"
                    fill-opacity="1"
                    d=" M-3.7130000591278076,1.781999945640564 C-2.825000047683716,2.359999895095825 -1.843000054359436,2.680999994277954 -0.9010000228881836,2.6619999408721924 C0.010999999940395355,2.6440000534057617 0.9470000267028809,2.2200000286102295 1.6390000581741333,1.6430000066757202 C2.3340001106262207,1.0609999895095825 2.7730000019073486,0.20100000500679016 2.878999948501587,-0.7360000014305115 C2.9820001125335693,-1.6749999523162842 2.747999906539917,-2.6730000972747803 2.190000057220459,-3.5789999961853027 C3.061000108718872,-2.9590001106262207 3.63100004196167,-1.8619999885559082 3.6600000858306885,-0.7110000252723694 C3.7130000591278076,0.4410000145435333 3.188999891281128,1.6330000162124634 2.2869999408721924,2.4040000438690186 C1.3739999532699585,3.13100004196167 0.24500000476837158,3.5789999961853027 -0.9409999847412109,3.437999963760376 C-2.0910000801086426,3.302000045776367 -3.111999988555908,2.6619999408721924 -3.7130000591278076,1.781999945640564z"></path>
            </g>
            <g
                opacity="1"
                transform="matrix(1,0,0,1,12.736000061035156,4.0879998207092285)">
                <path
                    fill="rgb(0,0,0)"
                    fill-opacity="1"
                    d=" M-3.4619998931884766,2.7290000915527344 C-2.4649999141693115,3.0889999866485596 -1.437999963760376,3.177000045776367 -0.5249999761581421,2.944000005722046 C0.36000001430511475,2.7190001010894775 1.1740000247955322,2.0920000076293945 1.715999960899353,1.3730000257492065 C2.260999917984009,0.6480000019073486 2.492000102996826,-0.28999999165534973 2.381999969482422,-1.2269999980926514 C2.2669999599456787,-2.1649999618530273 1.812000036239624,-3.0840001106262207 1.062999963760376,-3.8380000591278076 C2.052999973297119,-3.434000015258789 2.8559999465942383,-2.494999885559082 3.1459999084472656,-1.38100004196167 C3.4619998931884766,-0.2720000147819519 3.2230000495910645,1.0089999437332153 2.5209999084472656,1.965000033378601 C1.7979999780654907,2.88100004196167 0.8009999990463257,3.5759999752044678 -0.38499999046325684,3.7090001106262207 C-1.5360000133514404,3.8380000591278076 -2.6760001182556152,3.4489998817443848 -3.4619998931884766,2.7290000915527344z"></path>
            </g>
        </g>
        <g
            transform="matrix(2.2169477939605713,-0.11618528515100479,0.11618528515100479,2.2169477939605713,97.64763641357422,176.34593200683594)"
            opacity="1"
            style="display: block;">
            <g
                opacity="1"
                transform="matrix(1,0,0,1,53.209999084472656,16.327999114990234)">
                <path
                    fill="rgb(0,0,0)"
                    fill-opacity="1"
                    d=" M3.489000082015991,-5.506999969482422 C2.242000102996826,-4.885000228881836 0.8479999899864197,-4.263999938964844 -0.6909999847412109,-3.690000057220459 C-1.6799999475479126,-3.321000099182129 -2.632999897003174,-3.00600004196167 -3.5439999103546143,-2.736999988555908 C-2.802000045776367,-2.4649999141693115 -0.8610000014305115,-1.6410000324249268 0.6330000162124634,0.41499999165534973 C2.111999988555908,2.4509999752044678 2.2890000343322754,4.514999866485596 2.316999912261963,5.297999858856201 C2.625,4.395999908447266 2.9079999923706055,3.3959999084472656 3.131999969482422,2.306999921798706 C3.756999969482422,-0.7269999980926514 3.7170000076293945,-3.4210000038146973 3.489000082015991,-5.506999969482422z"></path>
            </g>
            <g opacity="1" transform="matrix(1,0,0,1,21.85700035095215,6.8429999351501465)">
                <path
                    fill="rgb(0,0,0)"
                    fill-opacity="1"
                    d=" M-4.754000186920166,-6.328000068664551 C-4.169000148773193,-2.369999885559082 -2.9839999675750732,1.9579999446868896 -2.4000000953674316,5.916999816894531 C-2.3940000534057617,3.8570001125335693 -1.284999966621399,2.0209999084472656 0.42399999499320984,1.2400000095367432 C2.2209999561309814,0.4189999997615814 3.868000030517578,1.218000054359436 4.195000171661377,1.3559999465942383 C1.3919999599456787,-1.0449999570846558 -1.9509999752044678,-3.927000045776367 -4.754000186920166,-6.328000068664551z"></path>
            </g>
            <g opacity="1" transform="matrix(1,0,0,1,4.895999908447266,20.28499984741211)">
                <path
                    fill="rgb(0,0,0)"
                    fill-opacity="1"
                    d=" M-5.658999919891357,-4.158999919891357 C-3.8389999866485596,-1.3530000448226929 -1.9040000438690186,1.4040000438690186 -0.08500000089406967,4.210000038146973 C-0.17399999499320984,3.680000066757202 -0.3970000147819519,1.937999963760376 0.6290000081062317,0.2150000035762787 C2.196000099182129,-2.4170000553131104 5.26800012588501,-2.6410000324249268 5.544000148773193,-2.6559998989105225 C1.8480000495910645,-3.1740000247955322 -1.9630000591278076,-3.6410000324249268 -5.658999919891357,-4.158999919891357z"></path>
            </g>
        </g>
        <g
            transform="matrix(1.948559045791626,-0.908627986907959,0.908627986907959,1.948559045791626,165.1669464111328,338.9803466796875)"
            opacity="1"
            style="display: block;">
            <g opacity="1" transform="matrix(1,0,0,1,20.68000030517578,7.388999938964844)">
                <path
                    fill="rgb(0,0,0)"
                    fill-opacity="1"
                    d=" M0.828000009059906,-7.047999858856201 C-0.746999979019165,-7.139999866485596 -3.4119999408721924,-2.3350000381469727 -2.5820000171661377,2.000999927520752 C-2.1480000019073486,4.265999794006348 -0.6050000190734863,7.138999938964844 1.065000057220459,7.0920000076293945 C1.7719999551773071,7.072000026702881 2.499000072479248,6.577000141143799 2.736999988555908,5.999000072479248 C3.4119999408721924,4.35099983215332 1.5989999771118164,2.931999921798706 1.6349999904632568,-0.5460000038146973 C1.6369999647140503,-0.7480000257492065 1.6929999589920044,-1.4190000295639038 1.8070000410079956,-2.759999990463257 C2.003999948501587,-5.093999862670898 2.1429998874664307,-6.146999835968018 1.4880000352859497,-6.729000091552734 C1.3990000486373901,-6.808000087738037 1.1490000486373901,-7.0289998054504395 0.828000009059906,-7.047999858856201z"></path>
            </g>
        </g>
        <g
            transform="matrix(2.1418159008026123,0.18738462030887604,-0.18738462030887604,2.1418159008026123,171.66696166992188,320.9645690917969)"
            opacity="1"
            style="display: block;">
            <g opacity="1" transform="matrix(1,0,0,1,8.562000274658203,14.51200008392334)">
                <path
                    fill="rgb(0,0,0)"
                    fill-opacity="1"
                    d=" M-0.25999999046325684,0.9599999785423279 C2.5220000743865967,3.3529999256134033 2.572000026702881,6.150000095367432 4.830999851226807,6.359000205993652 C5.005000114440918,6.375999927520752 6.1529998779296875,6.465000152587891 6.822000026702881,5.744999885559082 C8.312000274658203,4.142000198364258 6.572999954223633,-0.5400000214576721 3.6050000190734863,-3.128000020980835 C1.7630000114440918,-4.734000205993652 -0.18199999630451202,-5.210000038146973 -1.6349999904632568,-5.565999984741211 C-3.9179999828338623,-6.125 -7.642000198364258,-6.465000152587891 -8.170999526977539,-5.210999965667725 C-8.312000274658203,-4.875999927520752 -8.206000328063965,-4.473999977111816 -7.894000053405762,-3.9200000762939453 C-6.252999782562256,-1.0049999952316284 -3.253999948501587,-1.6150000095367432 -0.25999999046325684,0.9599999785423279z"></path>
            </g>
        </g>
        <g
            transform="matrix(2.2169477939605713,-0.11618528515100479,0.11618528515100479,2.2169477939605713,275.91485595703125,297.3880615234375)"
            opacity="1"
            style="display: block;">
            <g
                opacity="1"
                transform="matrix(1,0,0,1,13.407999992370605,11.552000045776367)">
                <path
                    fill="rgb(0,0,0)"
                    fill-opacity="1"
                    d=" M-5.354000091552734,-5.285999774932861 C-5.333000183105469,-5.829999923706055 -5.293000221252441,-6.6479997634887695 -4.9070000648498535,-7.609000205993652 C-4.328000068664551,-9.04800033569336 -2.813999891281128,-11.194999694824219 -0.6100000143051147,-11.267999649047852 C0.39800000190734863,-11.302000045776367 1.8259999752044678,-10.878999710083008 2.440999984741211,-9.795999526977539 C3.1659998893737793,-8.520000457763672 1.9299999475479126,-7.77400016784668 1.9299999475479126,-5.263999938964844 C1.9299999475479126,-4.171999931335449 2.1640000343322754,-4.11299991607666 3.9200000762939453,1.909999966621399 C4.111000061035156,2.565999984741211 4.209000110626221,2.8980000019073486 4.28000020980835,3.1689999103546143 C5.026000022888184,6.00600004196167 5.446000099182129,7.683000087738037 4.801000118255615,9.288000106811523 C4.670000076293945,9.612000465393066 4.163000106811523,10.871999740600586 3.1010000705718994,11.138999938964844 C2.4519999027252197,11.302000045776367 1.86899995803833,11.027000427246094 1.6540000438690186,10.925999641418457 C-0.5960000157356262,9.868000030517578 -1.3420000076293945,5.736000061035156 -4.048999786376953,-0.054999999701976776 C-4.578999996185303,-1.1890000104904175 -5.446000099182129,-2.9489998817443848 -5.354000091552734,-5.285999774932861z"></path>
            </g>
            <g opacity="1" transform="matrix(1,0,0,1,9.345999717712402,29.523000717163086)">
                <path
                    fill="rgb(0,0,0)"
                    fill-opacity="1"
                    d=" M-9.043000221252441,-3.436000108718872 C-9.048999786376953,-3.5169999599456787 -9.053999900817871,-3.6029999256134033 -9.053999900817871,-3.6029999256134033 C-9.090999603271484,-4.324999809265137 -9.095999717712402,-6.64300012588501 -7.415999889373779,-8.057000160217285 C-6.585999965667725,-8.755000114440918 -4.933000087738037,-9.527000427246094 -3.743000030517578,-8.907999992370605 C-2.3350000381469727,-8.173999786376953 -3.1679999828338623,-6.315000057220459 -1.7309999465942383,-4.0229997634887695 C-0.953000009059906,-2.7809998989105225 -0.5609999895095825,-3.0910000801086426 3.8510000705718994,0.14499999582767487 C5.144000053405762,1.093000054359436 6.638999938964844,2.178999900817871 7.9070000648498535,3.993000030517578 C8.581000328063965,4.954999923706055 9.095999717712402,5.980999946594238 8.800000190734863,6.955999851226807 C8.800000190734863,6.955999851226807 8.633000373840332,7.507999897003174 8.194000244140625,7.9120001792907715 C6.442999839782715,9.526000022888184 -0.014999999664723873,6.329999923706055 -4.3379998207092285,3.0869998931884766 C-4.3379998207092285,3.0869998931884766 -8.791000366210938,-0.2529999911785126 -9.043000221252441,-3.436000108718872z"></path>
            </g>
        </g>
    </g>
</svg>